<svg width="167" height="170" viewBox="0 0 167 170" fill="none" xmlns="http://www.w3.org/2000/svg">
<path fill-rule="evenodd" clip-rule="evenodd" d="M26.5318 1.5018H140.468C143.755 1.5018 147.01 2.14928 150.047 3.40716C153.084 4.66503 155.843 6.50872 158.167 8.83297C160.491 11.1572 162.335 13.9165 163.593 16.9533C164.851 19.9901 165.498 23.2448 165.498 26.5318V143.342C165.498 149.98 162.861 156.346 158.167 161.041C153.473 165.735 147.107 168.372 140.468 168.372H26.5318C19.8934 168.372 13.5269 165.735 8.8329 161.041C4.13887 156.346 1.5018 149.98 1.5018 143.342V26.5318C1.5018 19.8934 4.13887 13.527 8.8329 8.83297C13.5269 4.13893 19.8934 1.5018 26.5318 1.5018Z" fill="#01D501" stroke="#2A2A2A" stroke-width="3"/>
</svg>
